<?xml version="1.0" encoding="iso-8859-1"?>
<!-- Generator: Adobe Illustrator 19.0.0, SVG Export Plug-In . SVG Version: 6.00 Build 0)  -->
<svg version="1.1" id="Layer_1" xmlns="http://www.w3.org/2000/svg" xmlns:xlink="http://www.w3.org/1999/xlink" x="0px" y="0px"
	 viewBox="0 0 512 512" style="enable-background:new 0 0 512 512;" xml:space="preserve">
<circle style="fill:#366695;" cx="256" cy="256" r="256"/>
<path style="fill:#263A7A;" d="M418.804,195.325L70.261,287.332l222.087,222.087c114.178-16.232,204.086-107.782,217.815-222.748
	L418.804,195.325z"/>
<path style="fill:#995C33;" d="M63.785,266.786c0-31.904,25.864-85.764,57.77-85.764s57.77,0.003,57.77,31.91
	s-25.864,83.63-57.77,83.63S63.785,298.693,63.785,266.786z"/>
<path style="fill:#844921;" d="M332.678,212.932c0-31.904,25.864-31.91,57.77-31.91s57.768,53.86,57.768,85.764
	s-25.864,29.775-57.77,29.775S332.678,244.838,332.678,212.932z"/>
<path style="fill:#BF8B67;" d="M387.406,276.689c0,70.192-58.832,106.848-131.406,106.848s-131.406-36.655-131.406-106.848
	S183.425,149.594,256,149.594S387.406,206.496,387.406,276.689z"/>
<path style="fill:#9B6C4C;" d="M387.406,276.689c0-70.099-58.678-126.936-131.119-127.088v233.931
	C328.728,383.435,387.406,346.788,387.406,276.689z"/>
<g>
	<circle style="fill:#3A3A3A;" cx="192.991" cy="272.032" r="11.112"/>
	<circle style="fill:#3A3A3A;" cx="319.009" cy="272.032" r="11.112"/>
</g>
<path style="fill:#434849;" d="M221.617,313.971c0-25.062,15.394-45.38,34.383-45.38s34.383,20.318,34.383,45.38
	s-15.394,26.45-34.383,26.45S221.617,339.035,221.617,313.971z"/>
<path style="fill:#292D2D;" d="M290.383,313.971c0-24.935-15.239-45.166-34.095-45.371v71.82
	C275.144,340.406,290.383,338.908,290.383,313.971z"/>
<g>
</g>
<g>
</g>
<g>
</g>
<g>
</g>
<g>
</g>
<g>
</g>
<g>
</g>
<g>
</g>
<g>
</g>
<g>
</g>
<g>
</g>
<g>
</g>
<g>
</g>
<g>
</g>
<g>
</g>
</svg>
